<svg width="148" height="70" viewBox="0 0 148 70" fill="none" xmlns="http://www.w3.org/2000/svg">
<path d="M42.2158 39.3639C42.2158 40.107 42.0754 40.8042 41.7944 41.4555C41.5135 42.1068 41.1293 42.6788 40.6418 43.1714C40.1626 43.6557 39.6007 44.0398 38.9562 44.3237C38.3117 44.6076 37.6218 44.7495 36.8864 44.7495H28V26.7891H36.8864C37.6218 26.7891 38.3117 26.931 38.9562 27.2149C39.6007 27.4988 40.1626 27.8871 40.6418 28.3797C41.1293 28.864 41.5135 29.4318 41.7944 30.0831C42.0754 30.7343 42.2158 31.4316 42.2158 32.1747C42.2158 32.5087 42.1704 32.851 42.0795 33.2017C41.9886 33.5524 41.8605 33.8906 41.6953 34.2162C41.53 34.5419 41.3317 34.8383 41.1004 35.1055C40.869 35.3727 40.6129 35.5939 40.3319 35.7693C40.6211 35.9279 40.8814 36.145 41.1128 36.4206C41.3441 36.6878 41.5424 36.9842 41.7077 37.3098C41.8729 37.6355 41.9969 37.9778 42.0795 38.3368C42.1704 38.6875 42.2158 39.0299 42.2158 39.3639ZM31.5571 41.1549H36.8864C37.1343 41.1549 37.3657 41.109 37.5805 41.0171C37.7953 40.9253 37.9812 40.8 38.1382 40.6414C38.3035 40.4744 38.4315 40.2824 38.5224 40.0653C38.6133 39.8482 38.6588 39.6144 38.6588 39.3639C38.6588 39.1134 38.6133 38.8796 38.5224 38.6625C38.4315 38.4454 38.3035 38.2575 38.1382 38.0989C37.9812 37.9319 37.7953 37.8025 37.5805 37.7106C37.3657 37.6188 37.1343 37.5728 36.8864 37.5728H31.5571V41.1549ZM31.5571 33.9782H36.8864C37.1343 33.9782 37.3657 33.9323 37.5805 33.8405C37.7953 33.7486 37.9812 33.6234 38.1382 33.4647C38.3035 33.2977 38.4315 33.1057 38.5224 32.8886C38.6133 32.6632 38.6588 32.4252 38.6588 32.1747C38.6588 31.9242 38.6133 31.6904 38.5224 31.4733C38.4315 31.2562 38.3035 31.0683 38.1382 30.9097C37.9812 30.7427 37.7953 30.6133 37.5805 30.5214C37.3657 30.4296 37.1343 30.3837 36.8864 30.3837H31.5571V33.9782Z" fill="#333333"/>
<path d="M54.2999 43.1839C54.0272 43.4344 53.7339 43.6724 53.4199 43.8978C53.1142 44.1149 52.792 44.307 52.4532 44.474C52.1144 44.6326 51.7633 44.7579 51.3997 44.8497C51.0444 44.9499 50.6809 45 50.309 45C49.491 45 48.7226 44.8539 48.0038 44.5616C47.2849 44.2694 46.6528 43.8561 46.1075 43.3217C45.5704 42.7789 45.1449 42.1235 44.8309 41.3553C44.5252 40.5788 44.3724 39.7104 44.3724 38.7502V31.3355H47.7435V38.7502C47.7435 39.2011 47.8096 39.606 47.9418 39.9651C48.0823 40.3158 48.2682 40.6122 48.4995 40.8543C48.7309 41.0965 48.9994 41.2802 49.3051 41.4054C49.6191 41.5307 49.9537 41.5933 50.309 41.5933C50.6561 41.5933 50.9824 41.514 51.2882 41.3553C51.6021 41.1883 51.8748 40.9712 52.1062 40.704C52.3375 40.4368 52.5193 40.1362 52.6515 39.8022C52.7837 39.4599 52.8498 39.1092 52.8498 38.7502V31.3355H56.2333V44.7495H55.4153L54.2999 43.1839Z" fill="#333333"/>
<path d="M72.1099 37.9235C72.1099 38.9756 71.9323 39.9358 71.577 40.8042C71.2217 41.6726 70.7383 42.4199 70.1269 43.0461C69.5155 43.664 68.7966 44.1441 67.9704 44.4865C67.1524 44.8288 66.2724 45 65.3305 45C64.3968 45 63.5168 44.8247 62.6906 44.474C61.8726 44.1233 61.1537 43.6348 60.534 43.0086C59.9226 42.3823 59.4392 41.6392 59.0839 40.7792C58.7286 39.9108 58.551 38.9589 58.551 37.9235V26H61.9469V32.2624C62.1287 32.0286 62.3477 31.8198 62.6038 31.6361C62.8682 31.4524 63.1491 31.3021 63.4466 31.1852C63.7523 31.0683 64.0663 30.9807 64.3885 30.9222C64.7108 30.8554 65.0247 30.822 65.3305 30.822C66.2724 30.822 67.1524 31.0015 67.9704 31.3606C68.7966 31.7113 69.5155 32.2039 70.1269 32.8385C70.7383 33.4731 71.2217 34.2246 71.577 35.0929C71.9323 35.953 72.1099 36.8965 72.1099 37.9235ZM68.7016 37.9235C68.7016 37.4058 68.6107 36.9257 68.4289 36.4832C68.2554 36.0323 68.0158 35.644 67.7101 35.3184C67.4044 34.9927 67.0449 34.7381 66.6318 34.5544C66.227 34.3707 65.7932 34.2788 65.3305 34.2788C64.8678 34.2788 64.4298 34.3832 64.0167 34.592C63.6118 34.7924 63.2565 35.0637 62.9508 35.4061C62.6451 35.7401 62.4055 36.1283 62.232 36.5709C62.0585 37.0051 61.9717 37.4559 61.9717 37.9235C61.9717 38.4412 62.0585 38.9213 62.232 39.3639C62.4055 39.8064 62.6451 40.1905 62.9508 40.5161C63.2565 40.8418 63.6118 41.1006 64.0167 41.2927C64.4298 41.4764 64.8678 41.5682 65.3305 41.5682C65.7932 41.5682 66.227 41.4764 66.6318 41.2927C67.0449 41.1006 67.4044 40.8418 67.7101 40.5161C68.0158 40.1905 68.2554 39.8064 68.4289 39.3639C68.6107 38.9213 68.7016 38.4412 68.7016 37.9235Z" fill="#333333"/>
<path d="M87.2801 37.9235C87.2801 38.9756 87.1024 39.9358 86.7471 40.8042C86.3918 41.6726 85.9085 42.4199 85.297 43.0461C84.6856 43.664 83.9668 44.1441 83.1405 44.4865C82.3225 44.8288 81.4425 45 80.5006 45C79.5669 45 78.687 44.8247 77.8607 44.474C77.0427 44.1233 76.3239 43.6348 75.7042 43.0086C75.0927 42.3823 74.6094 41.6392 74.2541 40.7792C73.8988 39.9108 73.7211 38.9589 73.7211 37.9235V26H77.1171V32.2624C77.2988 32.0286 77.5178 31.8198 77.7739 31.6361C78.0383 31.4524 78.3193 31.3021 78.6167 31.1852C78.9224 31.0683 79.2364 30.9807 79.5587 30.9222C79.8809 30.8554 80.1949 30.822 80.5006 30.822C81.4425 30.822 82.3225 31.0015 83.1405 31.3606C83.9668 31.7113 84.6856 32.2039 85.297 32.8385C85.9085 33.4731 86.3918 34.2246 86.7471 35.0929C87.1024 35.953 87.2801 36.8965 87.2801 37.9235ZM83.8717 37.9235C83.8717 37.4058 83.7809 36.9257 83.5991 36.4832C83.4256 36.0323 83.186 35.644 82.8802 35.3184C82.5745 34.9927 82.2151 34.7381 81.802 34.5544C81.3971 34.3707 80.9633 34.2788 80.5006 34.2788C80.0379 34.2788 79.6 34.3832 79.1869 34.592C78.782 34.7924 78.4267 35.0637 78.121 35.4061C77.8153 35.7401 77.5756 36.1283 77.4021 36.5709C77.2286 37.0051 77.1419 37.4559 77.1419 37.9235C77.1419 38.4412 77.2286 38.9213 77.4021 39.3639C77.5756 39.8064 77.8153 40.1905 78.121 40.5161C78.4267 40.8418 78.782 41.1006 79.1869 41.2927C79.6 41.4764 80.0379 41.5682 80.5006 41.5682C80.9633 41.5682 81.3971 41.4764 81.802 41.2927C82.2151 41.1006 82.5745 40.8418 82.8802 40.5161C83.186 40.1905 83.4256 39.8064 83.5991 39.3639C83.7809 38.9213 83.8717 38.4412 83.8717 37.9235Z" fill="#333333"/>
<path d="M92.5723 44.7495H89.1639V26H92.5723V44.7495Z" fill="#333333"/>
<path d="M100.442 41.468C100.575 41.5098 100.707 41.539 100.839 41.5557C100.971 41.5641 101.103 41.5682 101.236 41.5682C101.566 41.5682 101.884 41.5223 102.19 41.4305C102.496 41.3386 102.781 41.2092 103.045 41.0422C103.318 40.8668 103.557 40.6581 103.764 40.416C103.979 40.1655 104.152 39.8899 104.285 39.5893L106.763 42.1068C106.449 42.5577 106.086 42.9626 105.673 43.3217C105.268 43.6807 104.826 43.9855 104.346 44.236C103.876 44.4865 103.376 44.6744 102.847 44.7996C102.326 44.9332 101.789 45 101.236 45C100.302 45 99.422 44.8247 98.5957 44.474C97.7777 44.1233 97.0589 43.6348 96.4392 43.0086C95.8277 42.3823 95.3444 41.6392 94.9891 40.7792C94.6338 39.9108 94.4561 38.9589 94.4561 37.9235C94.4561 36.8631 94.6338 35.8945 94.9891 35.0178C95.3444 34.1411 95.8277 33.3938 96.4392 32.7759C97.0589 32.158 97.7777 31.6779 98.5957 31.3355C99.422 30.9932 100.302 30.822 101.236 30.822C101.789 30.822 102.33 30.8888 102.859 31.0224C103.388 31.156 103.888 31.3481 104.359 31.5985C104.838 31.849 105.284 32.158 105.697 32.5254C106.111 32.8844 106.474 33.2894 106.788 33.7403L100.442 41.468ZM102.178 34.4166C102.021 34.3582 101.864 34.3206 101.707 34.3039C101.558 34.2872 101.401 34.2788 101.236 34.2788C100.773 34.2788 100.335 34.3665 99.9219 34.5419C99.517 34.7089 99.1617 34.951 98.856 35.2683C98.5585 35.5856 98.3231 35.9697 98.1495 36.4206C97.976 36.8631 97.8893 37.3641 97.8893 37.9235C97.8893 38.0488 97.8934 38.1907 97.9017 38.3494C97.9182 38.508 97.9388 38.6708 97.9636 38.8378C97.9967 38.9965 98.0339 39.151 98.0752 39.3013C98.1165 39.4515 98.1702 39.5851 98.2363 39.702L102.178 34.4166Z" fill="#333333"/>
<path d="M115.786 44.7495H108.052V41.3428H115.786C116.017 41.3428 116.216 41.2593 116.381 41.0923C116.546 40.9253 116.629 40.7249 116.629 40.4911C116.629 40.249 116.546 40.0903 116.381 40.0152C116.216 39.94 116.017 39.9024 115.786 39.9024H112.266C111.68 39.9024 111.13 39.7897 110.618 39.5643C110.106 39.3388 109.659 39.0341 109.279 38.65C108.899 38.2575 108.598 37.8025 108.375 37.2848C108.16 36.7671 108.052 36.2118 108.052 35.619C108.052 35.0261 108.16 34.4709 108.375 33.9532C108.598 33.4355 108.899 32.9846 109.279 32.6005C109.659 32.2164 110.106 31.9158 110.618 31.6987C111.13 31.4733 111.68 31.3606 112.266 31.3606H119.12V34.7673H112.266C112.035 34.7673 111.837 34.8508 111.671 35.0178C111.506 35.1848 111.423 35.3852 111.423 35.619C111.423 35.8611 111.506 36.0699 111.671 36.2452C111.837 36.4122 112.035 36.4957 112.266 36.4957H115.786C116.364 36.4957 116.91 36.5959 117.422 36.7963C117.934 36.9884 118.381 37.2597 118.761 37.6104C119.141 37.9611 119.442 38.3828 119.665 38.8754C119.888 39.3681 120 39.9066 120 40.4911C120 41.0839 119.888 41.6392 119.665 42.1569C119.442 42.6662 119.141 43.1171 118.761 43.5096C118.381 43.8937 117.934 44.1984 117.422 44.4239C116.91 44.641 116.364 44.7495 115.786 44.7495Z" fill="#333333"/>
</svg>
