<svg width="148" height="70" viewBox="0 0 148 70" fill="none" xmlns="http://www.w3.org/2000/svg">
<mask id="mask0" mask-type="alpha" maskUnits="userSpaceOnUse" x="74" y="20" width="24" height="39">
<rect x="74.4028" y="20.9427" width="23.0839" height="38.0573" rx="3.0603" fill="#C4C4C4"/>
</mask>
<g mask="url(#mask0)">
<path d="M81.4794 45.889C82.6402 44.9311 83.7972 43.6401 85.3021 43.6401H85.6877C87.5333 43.6401 89.0116 45.3088 88.2043 46.9685C87.6459 48.1167 86.8703 49.1155 85.8778 49.965C84.046 51.5518 81.6603 52.3453 78.7205 52.3453C75.0344 52.3453 72.1398 51.2118 70.0367 48.9448C67.9563 46.6552 66.916 43.5947 66.916 39.7635C66.916 35.9323 67.9563 32.8832 70.0367 30.6162C72.1398 28.3266 75.0344 27.1817 78.7205 27.1817C81.5246 27.1817 83.8199 27.9185 85.6064 29.392C86.4513 30.0696 87.1457 30.8485 87.6897 31.7288C88.6926 33.3516 87.2102 35.1389 85.3024 35.1389H84.7922C83.3949 35.1389 82.2702 33.969 81.0578 33.2744C80.4575 32.9305 79.6784 32.7585 78.7205 32.7585C77.0018 32.7585 75.6789 33.4046 74.7517 34.6968C73.8246 35.9663 73.361 37.6552 73.361 39.7635C73.361 41.8718 73.8246 43.5721 74.7517 44.8642C75.6789 46.1337 77.0018 46.7685 78.7205 46.7685C79.8286 46.7685 80.7218 46.4965 81.4002 45.9524C81.427 45.9316 81.4534 45.9105 81.4794 45.889Z" fill="#333333"/>
</g>
<path d="M65.0421 39.6344C66.1917 38.6659 67.3491 37.3831 68.8523 37.3831H69.4016C71.2487 37.3831 72.7262 39.0535 71.9211 40.716C71.3469 41.9018 70.5441 42.9318 69.5127 43.806C67.6346 45.4174 65.1884 46.2232 62.1741 46.2232C58.3947 46.2232 55.4269 45.0721 53.2705 42.77C51.1374 40.4449 50.0708 37.3371 50.0708 33.4465C50.0708 29.5559 51.1374 26.4596 53.2705 24.1575C55.4269 21.8324 58.3947 20.6698 62.1741 20.6698C65.0493 20.6698 67.4027 21.418 69.2344 22.9144C70.1158 23.6144 70.8375 24.421 71.3996 25.3342C72.4006 26.9607 70.919 28.7502 69.0092 28.7502H68.3338C66.9392 28.7502 65.8162 27.5907 64.6148 26.8824C63.9936 26.5161 63.1801 26.333 62.1741 26.333C60.412 26.333 59.0556 26.9891 58.1049 28.3013C57.1543 29.5905 56.6789 31.3055 56.6789 33.4465C56.6789 35.5875 57.1543 37.314 58.1049 38.6262C59.0556 39.9154 60.412 40.56 62.1741 40.56C63.3103 40.56 64.2261 40.2837 64.9217 39.7312C64.9628 39.6997 65.0029 39.6674 65.0421 39.6344Z" fill="#333333"/>
<mask id="mask1" mask-type="alpha" maskUnits="userSpaceOnUse" x="66" y="12" width="28" height="16">
<rect width="26.6193" height="15.8052" rx="3.0603" transform="matrix(1 0 0 -1 66.5 27.8052)" fill="#C4C4C4"/>
</mask>
<g mask="url(#mask1)">
<path d="M81.4794 18.2296C82.6402 17.2716 83.7972 15.9806 85.3021 15.9806H85.6877C87.5333 15.9806 89.0116 17.6494 88.2043 19.3091C87.6459 20.4573 86.8703 21.4561 85.8778 22.3055C84.046 23.8924 81.6603 24.6859 78.7205 24.6859C75.0344 24.6859 72.1398 23.5524 70.0367 21.2854C67.9563 18.9957 66.916 15.9353 66.916 12.1041C66.916 8.27286 67.9563 5.22377 70.0367 2.95678C72.1398 0.667122 75.0344 -0.477707 78.7205 -0.477707C81.5246 -0.477707 83.8199 0.259064 85.6064 1.73261C86.4513 2.41017 87.1457 3.18908 87.6897 4.06935C88.6926 5.6922 87.2102 7.47942 85.3024 7.47942H84.7922C83.3949 7.47942 82.2702 6.30954 81.0578 5.61492C80.4575 5.27103 79.6784 5.09908 78.7205 5.09908C77.0018 5.09908 75.6789 5.74517 74.7517 7.03736C73.8246 8.30687 73.361 9.99578 73.361 12.1041C73.361 14.2124 73.8246 15.9126 74.7517 17.2048C75.6789 18.4743 77.0018 19.1091 78.7205 19.1091C79.8286 19.1091 80.7218 18.837 81.4002 18.2929C81.427 18.2722 81.4534 18.251 81.4794 18.2296Z" fill="#333333"/>
</g>
</svg>
