<svg width="148" height="70" viewBox="0 0 148 70" fill="none" xmlns="http://www.w3.org/2000/svg">
<path fill-rule="evenodd" clip-rule="evenodd" d="M88.9997 23.0005C85.8009 19.8019 81.3819 17.8235 76.5008 17.8235C66.7383 17.8235 58.8242 25.7376 58.8242 35.5001C58.8242 45.2626 66.7383 53.1767 76.5008 53.1767C81.3822 53.1767 85.8014 51.1981 89.0002 47.9992L82.0562 41.0551C80.6345 42.477 78.6704 43.3564 76.5008 43.3564C72.1619 43.3564 68.6445 39.839 68.6445 35.5001C68.6445 31.1612 72.1619 27.6438 76.5008 27.6438C78.6701 27.6438 80.634 28.523 82.0557 29.9445L88.9997 23.0005Z" fill="#333333"/>
<path fill-rule="evenodd" clip-rule="evenodd" d="M82.189 41.1334L76.6948 35.5002L82.189 29.867C83.5951 31.3086 84.4648 33.3003 84.4648 35.5002C84.4648 37.7001 83.5951 39.6917 82.189 41.1334Z" fill="#333333"/>
</svg>
