<svg width="148" height="70" viewBox="0 0 148 70" fill="none" xmlns="http://www.w3.org/2000/svg">
<path fill-rule="evenodd" clip-rule="evenodd" d="M76.1 36.0552C81.6906 36.0552 86.2227 31.5231 86.2227 25.9325C86.2227 20.3419 81.6906 15.8098 76.1 15.8098C75.9479 15.8098 75.7966 15.8132 75.6461 15.8198C75.487 15.8137 75.3271 15.8107 75.1665 15.8107C68.3546 15.8107 62.8325 21.3328 62.8325 28.1446C62.8325 34.9565 68.3546 40.4786 75.1665 40.4786C79.5552 40.4786 83.4085 38.1865 85.5946 34.7341C83.4535 36.7032 80.4857 37.9226 77.206 37.9226C70.6791 37.9226 65.388 33.0935 65.388 27.1365C65.388 25.3763 65.8499 23.7146 66.6692 22.2469C66.2225 23.389 65.9773 24.6321 65.9773 25.9325C65.9773 31.5231 70.5094 36.0552 76.1 36.0552Z" fill="#333333"/>
<path d="M60.5037 46.6859C61.5441 46.6859 62.3412 46.9404 62.8951 47.4494C63.4565 47.9509 63.7371 48.6245 63.7371 49.4703C63.7371 49.9418 63.6361 50.4059 63.434 50.8625C63.2394 51.3191 62.9063 51.6821 62.4348 51.9515L64.3546 54.9492H62.4572L60.717 52.322H59.628V54.9492H58V46.6859H60.5037ZM60.7844 50.7502C61.1137 50.7502 61.3682 50.6828 61.5478 50.5481C61.7349 50.4059 61.8659 50.2412 61.9408 50.0541C62.0156 49.8595 62.0531 49.6836 62.0531 49.5264C62.0531 49.4366 62.0381 49.3243 62.0081 49.1896C61.9857 49.0474 61.9333 48.9052 61.851 48.763C61.7686 48.6208 61.6414 48.501 61.4692 48.4037C61.3046 48.3064 61.08 48.2577 60.7956 48.2577H59.628V50.7502H60.7844Z" fill="#333333"/>
<path d="M67.5044 55.0839C67.0479 55.0839 66.6324 54.9941 66.2582 54.8145C65.8914 54.6274 65.5995 54.3429 65.3825 53.9612C65.1654 53.5795 65.0569 53.093 65.0569 52.5017C65.0569 51.9478 65.1692 51.4688 65.3937 51.0646C65.6182 50.6604 65.9139 50.3498 66.2807 50.1327C66.6474 49.9082 67.0366 49.7959 67.4483 49.7959C67.9348 49.7959 68.3016 49.8745 68.5486 50.0317C68.8031 50.1888 69.0051 50.361 69.1548 50.5481L69.2559 50.0429H70.7154V54.9492H69.1436V54.3429C69.0688 54.4178 68.9565 54.5151 68.8068 54.6349C68.6646 54.7546 68.4849 54.8594 68.2679 54.9492C68.0508 55.039 67.7963 55.0839 67.5044 55.0839ZM67.9535 53.804C68.4999 53.804 68.8966 53.557 69.1436 53.063V51.8617C69.0538 51.6222 68.8966 51.4313 68.6721 51.2891C68.455 51.1469 68.1968 51.0758 67.8974 51.0758C67.5606 51.0758 67.2687 51.203 67.0217 51.4575C66.7747 51.7045 66.6512 52.0264 66.6512 52.4231C66.6512 52.685 66.711 52.9208 66.8308 53.1304C66.9506 53.34 67.1077 53.5046 67.3023 53.6244C67.5044 53.7442 67.7215 53.804 67.9535 53.804Z" fill="#333333"/>
<path d="M74.3335 55.0839C73.8769 55.0839 73.469 54.9792 73.1097 54.7696C72.7505 54.5525 72.466 54.2419 72.2565 53.8377C72.0544 53.4335 71.9533 52.9545 71.9533 52.4006C71.9533 51.8467 72.0656 51.3752 72.2902 50.986C72.5147 50.5968 72.8216 50.3011 73.2108 50.099C73.6 49.8969 74.0416 49.7959 74.5356 49.7959C74.85 49.7959 75.1494 49.8445 75.4338 49.9418C75.7257 50.0391 75.969 50.1888 76.1636 50.3909V46.0909H77.7242V54.9492H76.1523V54.4328C75.9128 54.6199 75.6434 54.7771 75.344 54.9043C75.0446 55.0241 74.7078 55.0839 74.3335 55.0839ZM74.85 53.7591C75.1643 53.7591 75.4263 53.6992 75.6359 53.5795C75.8455 53.4522 76.0176 53.2651 76.1523 53.0181V51.8168C76.0625 51.5773 75.9016 51.3864 75.6696 51.2442C75.4375 51.102 75.1643 51.0309 74.85 51.0309C74.6179 51.0309 74.4009 51.0908 74.1988 51.2105C74.0042 51.3228 73.847 51.48 73.7272 51.6821C73.6075 51.8842 73.5476 52.1162 73.5476 52.3782C73.5476 52.6401 73.6075 52.8759 73.7272 53.0855C73.847 53.2951 74.0042 53.4597 74.1988 53.5795C74.4009 53.6992 74.6179 53.7591 74.85 53.7591Z" fill="#333333"/>
<path d="M79.3412 50.0429H80.913V54.9492H79.3412V50.0429ZM79.3075 48.3027C79.3075 48.0706 79.3973 47.8798 79.5769 47.7301C79.7641 47.5804 79.9624 47.5055 80.172 47.5055C80.3816 47.5055 80.5724 47.5804 80.7446 47.7301C80.9242 47.8798 81.014 48.0706 81.014 48.3027C81.014 48.5347 80.9242 48.7256 80.7446 48.8753C80.5724 49.0175 80.3816 49.0886 80.172 49.0886C79.9624 49.0886 79.7641 49.0175 79.5769 48.8753C79.3973 48.7256 79.3075 48.5347 79.3075 48.3027Z" fill="#333333"/>
<path d="M84.5975 55.0839C84.141 55.0839 83.7256 54.9941 83.3513 54.8145C82.9846 54.6274 82.6926 54.3429 82.4756 53.9612C82.2585 53.5795 82.15 53.093 82.15 52.5017C82.15 51.9478 82.2623 51.4688 82.4868 51.0646C82.7114 50.6604 83.007 50.3498 83.3738 50.1327C83.7405 49.9082 84.1297 49.7959 84.5414 49.7959C85.0279 49.7959 85.3947 49.8745 85.6417 50.0317C85.8962 50.1888 86.0983 50.361 86.248 50.5481L86.349 50.0429H87.8086V54.9492H86.2367V54.3429C86.1619 54.4178 86.0496 54.5151 85.8999 54.6349C85.7577 54.7546 85.5781 54.8594 85.361 54.9492C85.1439 55.039 84.8895 55.0839 84.5975 55.0839ZM85.0466 53.804C85.593 53.804 85.9897 53.557 86.2367 53.063V51.8617C86.1469 51.6222 85.9897 51.4313 85.7652 51.2891C85.5481 51.1469 85.2899 51.0758 84.9905 51.0758C84.6537 51.0758 84.3618 51.203 84.1148 51.4575C83.8678 51.7045 83.7443 52.0264 83.7443 52.4231C83.7443 52.685 83.8042 52.9208 83.9239 53.1304C84.0437 53.34 84.2009 53.5046 84.3955 53.6244C84.5975 53.7442 84.8146 53.804 85.0466 53.804Z" fill="#333333"/>
<path d="M89.4282 46.0909H91V54.9492H89.4282V46.0909Z" fill="#333333"/>
</svg>
