<svg width="148" height="70" viewBox="0 0 148 70" fill="none" xmlns="http://www.w3.org/2000/svg">
<path d="M62.1699 35.8205L50.7674 24.2715L44.6167 30.3441L56.0191 41.8932L62.1699 35.8205Z" fill="#333333"/>
<path d="M99.2887 44.433C96.895 46.8943 93.7128 48.2499 90.3281 48.2499C86.9433 48.2499 83.7612 46.8943 81.3678 44.4334C81.3678 44.433 69.5425 32.2665 69.5425 32.2665C67.9596 30.6391 65.3846 30.6391 63.8021 32.2665C63.0354 33.0546 62.6133 34.103 62.6133 35.218C62.6133 36.3329 63.0354 37.3813 63.8021 38.1695C64.5936 38.9834 65.6328 39.3901 66.6721 39.3901C67.7114 39.3901 68.751 38.983 69.5421 38.1695L70.3814 37.3063L76.4705 43.5715L75.6327 44.433C73.2394 46.8943 70.0573 48.2499 66.6721 48.2499C63.2874 48.2499 60.1048 46.8943 57.7115 44.433C55.3182 41.9714 54 38.6989 54 35.218C54 31.7371 55.3182 28.4642 57.7115 26.0029C60.1048 23.5416 63.2874 22.186 66.6721 22.186C70.0569 22.186 73.239 23.5412 75.6324 26.0025L84.5885 35.2172L87.4495 38.161L87.4577 38.1695C89.0406 39.7969 91.6156 39.7969 93.1981 38.1695C93.9648 37.3813 94.3869 36.3329 94.3869 35.218C94.3869 34.103 93.9648 33.0546 93.1981 32.2665C91.6156 30.6391 89.0406 30.6391 87.4577 32.2665L86.6184 33.1296L80.5293 26.8645L81.3675 26.0029C83.7608 23.5416 86.9429 22.186 90.3277 22.186C93.7125 22.186 96.895 23.5416 99.2883 26.0029C101.682 28.4642 103 31.7371 103 35.218C103 38.6989 101.682 41.9714 99.2887 44.433Z" fill="#333333"/>
</svg>
