<svg width="148" height="70" viewBox="0 0 148 70" fill="none" xmlns="http://www.w3.org/2000/svg">
<path d="M34.8547 44.7645C34.0654 44.6906 33.143 44.6536 32.0876 44.6536H31L36.9885 27.7566C37.2546 26.9988 37.3877 26.5599 37.3877 26.4398C37.3877 26.3104 37.3831 26.2319 37.3739 26.2041L37.3877 26.1764C37.9843 26.2041 38.6175 26.218 39.2875 26.218C39.8382 26.218 40.499 26.2087 41.2699 26.1903L41.2837 26.218C41.2653 26.255 41.2561 26.3058 41.2561 26.3705C41.2561 26.546 41.3938 27.0127 41.6691 27.7705L47.7815 44.6952C47.5979 44.686 47.3823 44.6814 47.1345 44.6814C47.1345 44.6814 46.8958 44.6721 46.4186 44.6536C46.1892 44.6536 45.9827 44.6536 45.7991 44.6536H43.6653L42.3712 40.6616H36.1487L34.8547 44.7645ZM41.2974 37.3348L39.2187 30.8893L37.195 37.3348H41.2974Z" fill="#333333"/>
<path d="M52.8614 43.1012C52.8614 43.8959 52.8797 44.4134 52.9164 44.6536H49.4197V24.0002H52.8614V43.1012Z" fill="#333333"/>
<path d="M66.2425 43.7942C64.9393 44.5058 63.7599 44.8616 62.7045 44.8616C61.6491 44.8616 60.7451 44.7645 59.9925 44.5705C59.2399 44.3672 58.602 44.0715 58.0789 43.6833C57.0143 42.8979 56.482 41.7612 56.482 40.2734C56.482 38.9427 57.1336 37.8338 58.4369 36.9467C59.8502 35.9856 61.7684 35.5051 64.1913 35.5051L64.742 35.519C64.8521 35.5282 64.976 35.5375 65.1137 35.5467C65.2513 35.5467 65.3752 35.5559 65.4854 35.5744C65.4119 34.0959 64.7787 33.2319 63.5856 32.9823C63.1909 32.8992 62.7687 32.8576 62.319 32.8576C61.8785 32.8576 61.4426 32.8992 61.0112 32.9823C60.589 33.0563 60.176 33.1579 59.7722 33.2873C58.882 33.5738 58.2441 33.9018 57.8587 34.2715L57.8174 34.2437L57.4044 31.1804C59.0288 30.321 60.8047 29.8913 62.732 29.8913C65.724 29.8913 67.6375 30.9771 68.4727 33.1487C68.7389 33.8418 68.8719 34.6226 68.8719 35.4913V40.5091C68.8719 41.581 69.2482 42.3111 70.0008 42.6992L67.509 45.0002C66.9859 44.7229 66.5637 44.321 66.2425 43.7942ZM65.4991 38.0695C65.2513 38.0233 64.9943 38.0002 64.7282 38.0002H64.1775C62.1492 38.0002 60.8598 38.453 60.3091 39.3586C60.1439 39.6266 60.0613 39.9084 60.0613 40.2041C60.0613 40.4998 60.1118 40.7632 60.2127 40.9942C60.3229 41.216 60.5018 41.4008 60.7496 41.5487C61.2269 41.8259 61.9336 41.9645 62.8697 41.9645C63.815 41.9645 64.6961 41.7381 65.5129 41.2853C65.5037 41.1837 65.4991 41.0774 65.4991 40.9665V38.0695Z" fill="#333333"/>
<path d="M78.0267 44.8616C75.4386 44.8616 73.4883 44.3856 72.1759 43.4338C72.1943 43.1566 72.2218 42.8424 72.2585 42.4913L72.3824 41.4932C72.4558 40.8371 72.5017 40.4305 72.5201 40.2734C72.5384 40.1071 72.5522 40.0193 72.5614 40.0101C72.5706 39.9916 72.644 40.0655 72.7817 40.2318C72.9193 40.3889 73.1809 40.583 73.5664 40.814C73.9518 41.0451 74.3969 41.2484 74.9017 41.4239C75.9939 41.8028 77.1319 41.9922 78.3158 41.9922C79.9036 41.9922 80.6975 41.4609 80.6975 40.3982C80.6975 40.0563 80.546 39.8021 80.2432 39.6358C79.7017 39.3586 78.9032 39.1507 77.8478 39.012C76.8015 38.8642 75.9434 38.6517 75.2734 38.3744C74.6034 38.0972 74.0574 37.7645 73.6352 37.3764C72.8551 36.6464 72.465 35.6899 72.465 34.5071C72.465 33.0655 73.0157 31.9335 74.117 31.1111C75.2092 30.2979 76.7189 29.8913 78.6462 29.8913C80.5552 29.8913 82.1842 30.4365 83.5334 31.5269C83.4691 31.7672 83.4003 31.9982 83.3269 32.22C83.1158 32.8299 82.9598 33.2688 82.8588 33.5368L82.5422 34.3546C82.5238 34.4285 82.5101 34.4655 82.5009 34.4655C82.4825 34.4655 82.4091 34.3685 82.2806 34.1744C81.7024 33.4998 80.803 33.0563 79.5824 32.8437C79.2061 32.7698 78.8206 32.7328 78.426 32.7328C76.7556 32.7328 75.9204 33.2411 75.9204 34.2576C75.9204 34.6087 76.0948 34.8767 76.4436 35.0616C77.0952 35.4127 77.9854 35.6715 79.1143 35.8378C80.2523 36.0041 81.115 36.2305 81.7024 36.517C82.2898 36.7942 82.7624 37.1315 83.1204 37.5289C83.7812 38.2497 84.1116 39.2061 84.1116 40.3982C84.1116 41.7012 83.593 42.7592 82.5559 43.5724C81.473 44.4319 79.9632 44.8616 78.0267 44.8616Z" fill="#333333"/>
<path d="M90.8847 42.8239C90.8847 43.6186 90.9169 44.2285 90.9811 44.6536H87.5119V24.8319H90.8847V36.9744L97.1761 30.1685H101.265L95.8407 35.921L98.9382 40.1764C99.6082 41.2484 100.113 42.0338 100.453 42.5328L101.361 43.8219C101.636 44.1823 101.866 44.4596 102.049 44.6536H99.8743C99.0667 44.6536 98.3738 44.7229 97.7956 44.8616L93.5004 38.5408L90.8847 41.3408V42.8239Z" fill="#333333"/>
<path d="M113.242 43.7942C111.938 44.5058 110.759 44.8616 109.704 44.8616C108.648 44.8616 107.744 44.7645 106.992 44.5705C106.239 44.3672 105.601 44.0715 105.078 43.6833C104.014 42.8979 103.481 41.7612 103.481 40.2734C103.481 38.9427 104.133 37.8338 105.436 36.9467C106.849 35.9856 108.768 35.5051 111.19 35.5051L111.741 35.519C111.851 35.5282 111.975 35.5375 112.113 35.5467C112.251 35.5467 112.374 35.5559 112.485 35.5744C112.411 34.0959 111.778 33.2319 110.585 32.9823C110.19 32.8992 109.768 32.8576 109.318 32.8576C108.878 32.8576 108.442 32.8992 108.01 32.9823C107.588 33.0563 107.175 33.1579 106.771 33.2873C105.881 33.5738 105.243 33.9018 104.858 34.2715L104.817 34.2437L104.404 31.1804C106.028 30.321 107.804 29.8913 109.731 29.8913C112.723 29.8913 114.637 30.9771 115.472 33.1487C115.738 33.8418 115.871 34.6226 115.871 35.4913V40.5091C115.871 41.581 116.247 42.3111 117 42.6992L114.508 45.0002C113.985 44.7229 113.563 44.321 113.242 43.7942ZM112.498 38.0695C112.251 38.0233 111.994 38.0002 111.727 38.0002H111.177C109.148 38.0002 107.859 38.453 107.308 39.3586C107.143 39.6266 107.061 39.9084 107.061 40.2041C107.061 40.4998 107.111 40.7632 107.212 40.9942C107.322 41.216 107.501 41.4008 107.749 41.5487C108.226 41.8259 108.933 41.9645 109.869 41.9645C110.814 41.9645 111.695 41.7381 112.512 41.2853C112.503 41.1837 112.498 41.0774 112.498 40.9665V38.0695Z" fill="#333333"/>
</svg>
